<?xml version="1.0" encoding="utf-8"?>
<!-- Generator: Adobe Illustrator 25.3.1, SVG Export Plug-In . SVG Version: 6.00 Build 0)  -->
<svg version="1.1" id="Layer_1" xmlns="http://www.w3.org/2000/svg" xmlns:xlink="http://www.w3.org/1999/xlink" x="0px" y="0px"
	 width="20px" height="20px" viewBox="0 0 20 20" enable-background="new 0 0 20 20" xml:space="preserve">
<g>
	<path fill="#FFFFFF" d="M4.153,14.408l0.003-0.003c0,0,0,0,0,0L4.153,14.408z"/>
	<path fill="#FFFFFF" d="M4.778,15.751l-0.003,0.004L4.778,15.751C4.779,15.752,4.778,15.751,4.778,15.751L4.778,15.751z"/>
	<path fill="#FFFFFF" d="M19.029,7.253c0.001-0.384-0.022-0.766-0.077-1.147c-0.079-0.546-0.214-1.077-0.421-1.589
		c-0.658-1.628-1.781-2.835-3.341-3.634c-1.062-0.544-2.198-0.807-3.39-0.817c-0.884-0.007-1.769-0.002-2.653-0.002
		c-0.159,0-0.318,0.005-0.477,0.014C8.132,0.112,7.602,0.197,7.082,0.341C5.9,0.667,4.856,1.24,3.968,2.089
		c-0.735,0.703-1.286,1.53-1.653,2.479C1.99,5.408,1.839,6.28,1.835,7.179c-0.002,0.381-0.001,0.762,0,1.143
		c0,0.041-0.009,0.07-0.046,0.094c-0.065,0.043-0.124,0.095-0.18,0.15c-0.446,0.431-0.66,0.957-0.637,1.577
		c0.007,0.179,0.041,0.356,0.064,0.533c0.037,0.287,0.076,0.575,0.115,0.862c0.039,0.29,0.067,0.582,0.12,0.869
		C1.418,13.199,1.882,13.726,2.638,14c0.114,0.041,0.234,0.059,0.351,0.086c0,0,0.006-0.002,0.006-0.002L3,14.089
		c0.049,0.035,0.106-0.01,0.157,0.015L3.163,14.1l0.005,0.004c0.066,0.01,0.131,0.023,0.197,0L3.369,14.1l0.005,0.003
		c0.051-0.024,0.108,0.02,0.157-0.015l0.004-0.003l0.004,0.003c0.073-0.011,0.149-0.003,0.22-0.03l0.004-0.004l0.005,0.003
		c0.035-0.019,0.078,0.019,0.112-0.015l0.001,0c0.055-0.011,0.11-0.021,0.151,0.031l0.004,0.004l-0.001,0.005
		c0.004,0.012,0.004,0.026,0.013,0.036l0,0c0.013,0.029,0.001,0.067,0.033,0.089c0.004,0.011,0.003,0.024,0.012,0.032l0,0
		c0.002,0.028,0.01,0.054,0.029,0.076l0.004,0.003l-0.001,0.005c0.012,0.026,0.001,0.061,0.032,0.08l0,0
		c0.004,0.011,0.003,0.024,0.013,0.033c0.013,0.024-0.001,0.059,0.03,0.075l0,0c0.008,0.009,0.005,0.022,0.013,0.031l0.004,0.003
		l-0.001,0.005c0.007,0.024,0.004,0.051,0.028,0.068l0,0.001c0.015,0.011,0,0.034,0.018,0.043c0.007,0.021,0.005,0.047,0.027,0.062
		l0.004,0.003l-0.001,0.005c0.004,0.012,0.003,0.027,0.015,0.036c0.008,0.021,0.005,0.047,0.028,0.062l0,0.001
		c0.015,0.01,0,0.034,0.018,0.043c0.007,0.022,0.005,0.048,0.028,0.062l0,0c0.009,0.008,0.006,0.022,0.014,0.03l0.004,0.003
		l-0.001,0.005c0.007,0.023,0.003,0.052,0.03,0.066c0.006,0.01,0.005,0.023,0.014,0.031c0.012,0.037,0.023,0.074,0.049,0.104
		L4.49,15.176c0.006,0.035,0.015,0.069,0.044,0.093c0.006,0.01,0.004,0.023,0.015,0.031c0.004,0.023,0.013,0.044,0.03,0.061l0,0
		c0.008,0.009,0.005,0.023,0.015,0.031c0.011,0.02,0.006,0.048,0.03,0.06c0.008,0.009,0.005,0.023,0.015,0.03
		c0.012,0.032,0.018,0.067,0.046,0.091c0.007,0.009,0.005,0.023,0.015,0.03c0.005,0.023,0.011,0.045,0.031,0.06
		c0.006,0.01,0.003,0.024,0.016,0.03c0.008,0.021,0.001,0.05,0.032,0.059l0,0l0,0c0,0,0,0,0,0l0,0
		c-0.001,0.009,0.006,0.013,0.01,0.019l0,0.001c0.01,0.007,0.007,0.021,0.015,0.029l0,0c0.007,0.022,0.013,0.044,0.032,0.059
		c0.006,0.009,0.004,0.023,0.016,0.029c0.001,0.034,0.024,0.055,0.043,0.077l0,0c0.008,0.008,0.005,0.023,0.016,0.029
		c-0.001,0.034,0.026,0.053,0.044,0.077l0,0c0.014,0.026,0.011,0.061,0.044,0.076l0.001,0.001c0.01,0.007,0.006,0.021,0.016,0.028
		l0,0c0.004,0.032,0.026,0.053,0.045,0.076l0,0c0.009,0.008,0.005,0.023,0.017,0.029c0.003,0.02,0.008,0.038,0.028,0.047l0,0
		c0.009,0.008,0.005,0.023,0.017,0.028c0.011,0.028,0.02,0.058,0.048,0.076c0.01,0.014,0.021,0.028,0.031,0.042
		c0.254,0.401,0.53,0.786,0.837,1.149c0.495,0.585,1.05,1.103,1.701,1.514c0.535,0.338,1.108,0.585,1.731,0.71
		c0.096,0.019,0.193,0.036,0.289,0.054c0.023,0.001,0.045,0,0.068,0.003c0.3,0.036,0.599,0.04,0.9,0.016
		c0.431-0.034,0.847-0.132,1.25-0.284c0.623-0.234,1.18-0.58,1.689-1.005c0.639-0.533,1.174-1.158,1.639-1.845
		c0.587-0.867,1.043-1.8,1.397-2.784c0.342-0.949,0.581-1.924,0.716-2.924c0.06-0.44,0.099-0.883,0.113-1.326
		c0.027-0.865-0.032-1.724-0.207-2.574c-0.156-0.757-0.399-1.484-0.761-2.168c-0.732-1.382-1.818-2.37-3.288-2.926
		c-0.774-0.293-1.579-0.433-2.403-0.476c-0.612-0.031-1.222-0.009-1.83,0.074c-0.471,0.065-0.933,0.168-1.383,0.32
		C6.3,2.467,5.223,3.295,4.444,4.505c-0.566,0.88-0.905,1.847-1.096,2.87C3.315,7.556,3.288,7.738,3.264,7.92
		c-0.004,0.033-0.015,0.048-0.05,0.051C3.141,7.979,3.068,7.99,2.996,8C2.935,8.007,2.934,8.007,2.934,7.943c0-0.245,0-0.49,0-0.734
		C2.933,6.661,2.993,6.121,3.137,5.592c0.443-1.632,1.415-2.85,2.897-3.66C6.98,1.415,8.001,1.172,9.077,1.161
		c0.884-0.009,1.769-0.003,2.653-0.002c0.387,0.001,0.771,0.036,1.153,0.102c0.679,0.118,1.324,0.334,1.931,0.658
		c0.859,0.459,1.571,1.086,2.116,1.896c0.663,0.987,0.978,2.082,1,3.265c0.008,0.442-0.001,0.883,0.004,1.325
		c0.004,0.357,0.354,0.609,0.697,0.512c0.222-0.063,0.4-0.275,0.398-0.529C19.027,8.01,19.027,7.631,19.029,7.253z M4.418,11.031
		c0.229-0.609,0.537-1.173,0.956-1.673C5.501,9.207,5.643,9.071,5.808,8.96c0.086-0.058,0.178-0.104,0.278-0.136
		c0.042-0.014,0.08-0.011,0.123,0.008C6.66,9.024,7.12,9.199,7.59,9.343C8.019,9.475,8.455,9.58,8.9,9.649
		c0.551,0.085,1.105,0.111,1.662,0.076c0.619-0.039,1.227-0.146,1.829-0.291c0.699-0.169,1.385-0.382,2.069-0.602
		c0.04-0.013,0.077-0.019,0.118-0.011c0.461,0.092,0.871,0.286,1.205,0.622c0.319,0.321,0.5,0.708,0.547,1.16
		c0.023,0.219-0.003,0.433-0.038,0.647c-0.091,0.558-0.214,1.108-0.375,1.65c-0.304,1.024-0.717,2.001-1.275,2.914
		c-0.379,0.621-0.817,1.196-1.345,1.699c-0.408,0.389-0.857,0.72-1.369,0.963c-0.395,0.187-0.81,0.309-1.246,0.351
		c-0.571,0.055-1.122-0.035-1.654-0.246c-0.512-0.203-0.966-0.5-1.382-0.859c-0.57-0.493-1.039-1.072-1.446-1.703
		c-0.131-0.203-0.257-0.41-0.37-0.624c0-0.014,0.004-0.023,0.021-0.017c0.485,0.257,0.991,0.462,1.517,0.615
		c0.544,0.158,1.099,0.261,1.664,0.311c0.116,0.01,0.232,0.021,0.348,0.026c0.041,0.002,0.061,0.016,0.082,0.05
		c0.174,0.289,0.426,0.473,0.756,0.549c0.622,0.144,1.265-0.269,1.393-0.894c0.133-0.654-0.284-1.273-0.939-1.395
		c-0.464-0.086-0.944,0.128-1.196,0.538c-0.03,0.048-0.057,0.062-0.113,0.057c-0.285-0.023-0.568-0.053-0.85-0.101
		c-0.874-0.15-1.696-0.441-2.457-0.9c-0.375-0.226-0.725-0.486-1.053-0.776c-0.03-0.026-0.048-0.056-0.06-0.093
		c-0.211-0.65-0.383-1.31-0.499-1.984c-0.014-0.08-0.022-0.16-0.038-0.239C4.399,11.102,4.404,11.067,4.418,11.031z"/>
</g>
</svg>
