<?xml version="1.0" encoding="utf-8"?>
<!-- Generator: Adobe Illustrator 25.4.1, SVG Export Plug-In . SVG Version: 6.00 Build 0)  -->
<svg version="1.1" id="Layer_1" xmlns="http://www.w3.org/2000/svg" xmlns:xlink="http://www.w3.org/1999/xlink" x="0px" y="0px"
	 width="19.968px" height="14.957px" viewBox="0 0 19.968 14.957" enable-background="new 0 0 19.968 14.957" xml:space="preserve">
<g>
	<g>
		<path fill="#E6E6E6" d="M13.305,9.411c-0.423,0.297-0.767,0.529-1.031,0.696c-0.264,0.166-0.615,0.336-1.053,0.51
			c-0.438,0.174-0.847,0.261-1.226,0.261H9.984H9.973c-0.379,0-0.787-0.087-1.226-0.261c-0.438-0.173-0.789-0.343-1.053-0.51
			C7.43,9.941,7.087,9.709,6.663,9.411c-0.118-0.082-0.249-0.173-0.391-0.27l-5.658,5.395c0.331,0.279,0.72,0.42,1.169,0.42h16.402
			c0.449,0,0.838-0.141,1.169-0.42l-5.657-5.393C13.56,9.235,13.429,9.325,13.305,9.411z M1.126,5.747
			C0.702,5.478,0.327,5.169,0,4.823v8.206l4.986-4.754C3.989,7.611,2.704,6.769,1.126,5.747z M14.984,8.276l4.984,4.752V4.823
			c-0.32,0.34-0.691,0.648-1.114,0.924C17.336,6.726,16.046,7.569,14.984,8.276z M1.917,4.61c0.252,0.17,1.014,0.674,2.284,1.514
			c0.686,0.453,1.282,0.848,1.795,1.189c0.437,0.29,0.813,0.541,1.125,0.75c0.036,0.024,0.092,0.062,0.166,0.113
			C7.367,8.23,7.469,8.3,7.594,8.386C7.836,8.553,8.036,8.687,8.196,8.79c0.16,0.103,0.353,0.218,0.579,0.345
			c0.227,0.128,0.44,0.223,0.641,0.287c0.201,0.063,0.386,0.095,0.557,0.095h0.011h0.011c0.171,0,0.357-0.032,0.557-0.095
			c0.201-0.064,0.414-0.159,0.641-0.287c0.227-0.127,0.419-0.243,0.579-0.345c0.16-0.103,0.361-0.238,0.602-0.404
			C12.5,8.3,12.601,8.23,12.682,8.176c0.075-0.051,0.131-0.089,0.167-0.113c0.242-0.161,0.62-0.411,1.128-0.747
			C14.9,6.703,16.26,5.803,18.063,4.61c0.542-0.361,0.995-0.797,1.359-1.307c0.364-0.51,0.546-1.044,0.546-1.604
			c0-0.468-0.177-0.867-0.529-1.201C19.086,0.166,18.668,0,18.185,0H1.783c-0.572,0-1.012,0.184-1.32,0.552
			C0.154,0.92,0,1.381,0,1.933c0,0.446,0.204,0.929,0.613,1.45C1.022,3.904,1.456,4.313,1.917,4.61z"/>
	</g>
</g>
</svg>
