<?xml version="1.0" encoding="utf-8"?>
<!-- Generator: Adobe Illustrator 25.1.0, SVG Export Plug-In . SVG Version: 6.00 Build 0)  -->
<svg version="1.1" id="Layer_1" xmlns="http://www.w3.org/2000/svg" xmlns:xlink="http://www.w3.org/1999/xlink" x="0px" y="0px"
	 width="19.8px" height="19.8px" viewBox="0 0 19.8 19.8" style="enable-background:new 0 0 19.8 19.8;" xml:space="preserve">
<style type="text/css">
	.st0{fill:#FFFFFF;}
</style>
<path class="st0" d="M18.3,13.1c-1.2,0-2.4-0.2-3.6-0.6c-0.6-0.2-1.2,0-1.5,0.3l-2.3,1.7c-2.6-1.4-4.2-3-5.6-5.6L7,6.7
	c0.4-0.4,0.6-1,0.4-1.6C7,4,6.8,2.8,6.8,1.6C6.8,0.7,6.1,0,5.2,0H1.6C0.7,0,0,0.7,0,1.6c0,10.1,8.2,18.3,18.3,18.3
	c0.9,0,1.6-0.7,1.6-1.6v-3.6C19.8,13.8,19.1,13.1,18.3,13.1z"/>
</svg>
