<?xml version="1.0" encoding="utf-8"?>
<!-- Generator: Adobe Illustrator 25.2.3, SVG Export Plug-In . SVG Version: 6.00 Build 0)  -->
<svg version="1.1" id="Layer_1" xmlns="http://www.w3.org/2000/svg" xmlns:xlink="http://www.w3.org/1999/xlink" x="0px" y="0px"
	 width="19.514px" height="23.398px" viewBox="0 0 19.514 23.398" enable-background="new 0 0 19.514 23.398" xml:space="preserve">
<g>
	<g>
		<path fill="#00703C" d="M9.609,11.271c1.548,0,2.888-0.555,3.983-1.651c1.095-1.096,1.65-2.436,1.65-3.985
			c0-1.548-0.555-2.889-1.65-3.984C12.497,0.555,11.157,0,9.609,0C8.061,0,6.721,0.555,5.626,1.651
			c-1.095,1.095-1.65,2.436-1.65,3.984c0,1.549,0.555,2.889,1.651,3.985C6.722,10.715,8.062,11.271,9.609,11.271z M19.466,17.992
			c-0.032-0.456-0.096-0.953-0.19-1.479c-0.095-0.529-0.217-1.029-0.363-1.486c-0.151-0.473-0.357-0.939-0.611-1.386
			c-0.264-0.464-0.574-0.868-0.921-1.201c-0.363-0.348-0.808-0.628-1.323-0.832c-0.513-0.203-1.081-0.306-1.689-0.306
			c-0.239,0-0.469,0.098-0.915,0.388c-0.275,0.179-0.595,0.386-0.954,0.615c-0.306,0.195-0.721,0.378-1.234,0.544
			c-0.5,0.162-1.008,0.244-1.509,0.244s-1.009-0.082-1.51-0.244c-0.512-0.166-0.927-0.349-1.233-0.544
			c-0.355-0.227-0.676-0.434-0.955-0.615c-0.445-0.29-0.677-0.388-0.915-0.388c-0.608,0-1.176,0.103-1.689,0.306
			c-0.514,0.204-0.959,0.483-1.323,0.832c-0.348,0.333-0.658,0.737-0.921,1.201c-0.254,0.447-0.46,0.914-0.611,1.387
			c-0.146,0.457-0.268,0.957-0.363,1.486c-0.094,0.525-0.158,1.022-0.19,1.479C0.016,18.44,0,18.905,0,19.374
			c0,1.221,0.388,2.21,1.153,2.939c0.756,0.72,1.756,1.085,2.972,1.085h11.262c1.216,0,2.216-0.365,2.972-1.085
			c0.766-0.729,1.154-1.718,1.154-2.94C19.513,18.902,19.497,18.437,19.466,17.992z"/>
	</g>
</g>
</svg>
